<?xml version="1.0" encoding="UTF-8" standalone="no"?>
<!DOCTYPE svg PUBLIC "-//W3C//DTD SVG 1.1//EN"
 "http://www.w3.org/Graphics/SVG/1.1/DTD/svg11.dtd">
<!-- Generated by graphviz version 8.0.5 (20230506.1012)
 -->
<!-- Title: snakemake_dag Pages: 1 -->
<svg width="850pt" height="548pt"
 viewBox="0.00 0.00 850.38 548.00" xmlns="http://www.w3.org/2000/svg" xmlns:xlink="http://www.w3.org/1999/xlink">
<g id="graph0" class="graph" transform="scale(1 1) rotate(0) translate(4 544)">
<title>snakemake_dag</title>
<polygon fill="white" stroke="none" points="-4,4 -4,-544 846.38,-544 846.38,4 -4,4"/>
<!-- 0 -->
<g id="node1" class="node">
<title>0</title>
<path fill="none" stroke="#56d8b1" stroke-width="2" d="M280.88,-36C280.88,-36 250.88,-36 250.88,-36 244.88,-36 238.88,-30 238.88,-24 238.88,-24 238.88,-12 238.88,-12 238.88,-6 244.88,0 250.88,0 250.88,0 280.88,0 280.88,0 286.88,0 292.88,-6 292.88,-12 292.88,-12 292.88,-24 292.88,-24 292.88,-30 286.88,-36 280.88,-36"/>
<text text-anchor="middle" x="265.88" y="-14.88" font-family="sans" font-size="10.00">all</text>
</g>
<!-- 1 -->
<g id="node2" class="node">
<title>1</title>
<path fill="none" stroke="#59d856" stroke-width="2" d="M79.75,-108C79.75,-108 12,-108 12,-108 6,-108 0,-102 0,-96 0,-96 0,-84 0,-84 0,-78 6,-72 12,-72 12,-72 79.75,-72 79.75,-72 85.75,-72 91.75,-78 91.75,-84 91.75,-84 91.75,-96 91.75,-96 91.75,-102 85.75,-108 79.75,-108"/>
<text text-anchor="middle" x="45.88" y="-86.88" font-family="sans" font-size="10.00">fastqc_raw_fwd</text>
</g>
<!-- 1&#45;&gt;0 -->
<g id="edge6" class="edge">
<title>1&#45;&gt;0</title>
<path fill="none" stroke="grey" stroke-width="2" d="M92.53,-74.15C132.19,-61.53 188.52,-43.61 226.09,-31.66"/>
<polygon fill="grey" stroke="grey" stroke-width="2" points="227.59,-34.22 236.05,-27.85 225.46,-27.55 227.59,-34.22"/>
</g>
<!-- 2 -->
<g id="node3" class="node">
<title>2</title>
<path fill="none" stroke="#56d86b" stroke-width="2" d="M188,-108C188,-108 121.75,-108 121.75,-108 115.75,-108 109.75,-102 109.75,-96 109.75,-96 109.75,-84 109.75,-84 109.75,-78 115.75,-72 121.75,-72 121.75,-72 188,-72 188,-72 194,-72 200,-78 200,-84 200,-84 200,-96 200,-96 200,-102 194,-108 188,-108"/>
<text text-anchor="middle" x="154.88" y="-86.88" font-family="sans" font-size="10.00">fastqc_raw_rev</text>
</g>
<!-- 2&#45;&gt;0 -->
<g id="edge7" class="edge">
<title>2&#45;&gt;0</title>
<path fill="none" stroke="grey" stroke-width="2" d="M183.17,-71.15C196.58,-62.7 212.81,-52.47 227.32,-43.31"/>
<polygon fill="grey" stroke="grey" stroke-width="2" points="229.42,-45.86 236.01,-37.57 225.69,-39.94 229.42,-45.86"/>
</g>
<!-- 3 -->
<g id="node4" class="node">
<title>3</title>
<path fill="none" stroke="#56b1d8" stroke-width="2" d="M297.38,-324C297.38,-324 236.38,-324 236.38,-324 230.38,-324 224.38,-318 224.38,-312 224.38,-312 224.38,-300 224.38,-300 224.38,-294 230.38,-288 236.38,-288 236.38,-288 297.38,-288 297.38,-288 303.38,-288 309.38,-294 309.38,-300 309.38,-300 309.38,-312 309.38,-312 309.38,-318 303.38,-324 297.38,-324"/>
<text text-anchor="middle" x="266.88" y="-302.88" font-family="sans" font-size="10.00">fastqc_qc_fwd</text>
</g>
<!-- 3&#45;&gt;0 -->
<g id="edge1" class="edge">
<title>3&#45;&gt;0</title>
<path fill="none" stroke="grey" stroke-width="2" d="M266.81,-287.11C266.65,-239.56 266.19,-109.6 265.98,-49.83"/>
<polygon fill="grey" stroke="grey" stroke-width="2" points="269.47,-49.87 265.94,-39.88 262.47,-49.9 269.47,-49.87"/>
</g>
<!-- 4 -->
<g id="node5" class="node">
<title>4</title>
<path fill="none" stroke="#56d8c9" stroke-width="2" d="M341.88,-468C341.88,-468 311.88,-468 311.88,-468 305.88,-468 299.88,-462 299.88,-456 299.88,-456 299.88,-444 299.88,-444 299.88,-438 305.88,-432 311.88,-432 311.88,-432 341.88,-432 341.88,-432 347.88,-432 353.88,-438 353.88,-444 353.88,-444 353.88,-456 353.88,-456 353.88,-462 347.88,-468 341.88,-468"/>
<text text-anchor="middle" x="326.88" y="-446.88" font-family="sans" font-size="10.00">fastp</text>
</g>
<!-- 4&#45;&gt;3 -->
<g id="edge8" class="edge">
<title>4&#45;&gt;3</title>
<path fill="none" stroke="grey" stroke-width="2" d="M319.28,-431.02C309.22,-407.22 291.37,-364.97 279.33,-336.48"/>
<polygon fill="grey" stroke="grey" stroke-width="2" points="282.53,-334.69 275.41,-326.84 276.08,-337.41 282.53,-334.69"/>
</g>
<!-- 5 -->
<g id="node6" class="node">
<title>5</title>
<path fill="none" stroke="#b6d856" stroke-width="2" d="M225.62,-180C225.62,-180 166.12,-180 166.12,-180 160.12,-180 154.12,-174 154.12,-168 154.12,-168 154.12,-156 154.12,-156 154.12,-150 160.12,-144 166.12,-144 166.12,-144 225.62,-144 225.62,-144 231.62,-144 237.62,-150 237.62,-156 237.62,-156 237.62,-168 237.62,-168 237.62,-174 231.62,-180 225.62,-180"/>
<text text-anchor="middle" x="195.88" y="-158.88" font-family="sans" font-size="10.00">fastqc_qc_rev</text>
</g>
<!-- 4&#45;&gt;5 -->
<g id="edge9" class="edge">
<title>4&#45;&gt;5</title>
<path fill="none" stroke="grey" stroke-width="2" d="M303.88,-431.05C277.46,-408.98 235.14,-368.88 214.88,-324 195.74,-281.61 193.39,-226.87 194.13,-193.38"/>
<polygon fill="grey" stroke="grey" stroke-width="2" points="197.72,-193.95 194.58,-183.84 190.72,-193.71 197.72,-193.95"/>
</g>
<!-- 9 -->
<g id="node10" class="node">
<title>9</title>
<path fill="none" stroke="#8fd856" stroke-width="2" d="M442.62,-396C442.62,-396 389.12,-396 389.12,-396 383.12,-396 377.12,-390 377.12,-384 377.12,-384 377.12,-372 377.12,-372 377.12,-366 383.12,-360 389.12,-360 389.12,-360 442.62,-360 442.62,-360 448.62,-360 454.62,-366 454.62,-372 454.62,-372 454.62,-384 454.62,-384 454.62,-390 448.62,-396 442.62,-396"/>
<text text-anchor="middle" x="415.88" y="-374.88" font-family="sans" font-size="10.00">getorganelle</text>
</g>
<!-- 4&#45;&gt;9 -->
<g id="edge16" class="edge">
<title>4&#45;&gt;9</title>
<path fill="none" stroke="grey" stroke-width="2" d="M349.33,-431.34C359.58,-423.27 371.92,-413.57 383.18,-404.72"/>
<polygon fill="grey" stroke="grey" stroke-width="2" points="385.42,-406.83 391.11,-397.9 381.09,-401.33 385.42,-406.83"/>
</g>
<!-- 15 -->
<g id="node16" class="node">
<title>15</title>
<path fill="none" stroke="#56a2d8" stroke-width="2" d="M419.62,-252C419.62,-252 384.12,-252 384.12,-252 378.12,-252 372.12,-246 372.12,-240 372.12,-240 372.12,-228 372.12,-228 372.12,-222 378.12,-216 384.12,-216 384.12,-216 419.62,-216 419.62,-216 425.62,-216 431.62,-222 431.62,-228 431.62,-228 431.62,-240 431.62,-240 431.62,-246 425.62,-252 419.62,-252"/>
<text text-anchor="middle" x="401.88" y="-230.88" font-family="sans" font-size="10.00">minimap</text>
</g>
<!-- 4&#45;&gt;15 -->
<g id="edge25" class="edge">
<title>4&#45;&gt;15</title>
<path fill="none" stroke="grey" stroke-width="2" d="M327.24,-431.17C328.5,-400.47 333.91,-336.27 356.88,-288 361.2,-278.91 367.49,-270.11 374,-262.38"/>
<polygon fill="grey" stroke="grey" stroke-width="2" points="376.44,-264.68 380.54,-254.91 371.24,-259.99 376.44,-264.68"/>
</g>
<!-- 5&#45;&gt;0 -->
<g id="edge4" class="edge">
<title>5&#45;&gt;0</title>
<path fill="none" stroke="grey" stroke-width="2" d="M204.74,-143.02C216.47,-119.22 237.3,-76.97 251.34,-48.48"/>
<polygon fill="grey" stroke="grey" stroke-width="2" points="254.8,-49.36 256.08,-38.84 248.52,-46.26 254.8,-49.36"/>
</g>
<!-- 6 -->
<g id="node7" class="node">
<title>6</title>
<path fill="none" stroke="#d8b456" stroke-width="2" d="M440.25,-108C440.25,-108 393.5,-108 393.5,-108 387.5,-108 381.5,-102 381.5,-96 381.5,-96 381.5,-84 381.5,-84 381.5,-78 387.5,-72 393.5,-72 393.5,-72 440.25,-72 440.25,-72 446.25,-72 452.25,-78 452.25,-84 452.25,-84 452.25,-96 452.25,-96 452.25,-102 446.25,-108 440.25,-108"/>
<text text-anchor="middle" x="416.88" y="-86.88" font-family="sans" font-size="10.00">summarise</text>
</g>
<!-- 6&#45;&gt;0 -->
<g id="edge5" class="edge">
<title>6&#45;&gt;0</title>
<path fill="none" stroke="grey" stroke-width="2" d="M380.71,-72.23C357.97,-61.69 328.63,-48.09 305.3,-37.28"/>
<polygon fill="grey" stroke="grey" stroke-width="2" points="306.26,-33.94 295.72,-32.91 303.32,-40.29 306.26,-33.94"/>
</g>
<!-- 7 -->
<g id="node8" class="node">
<title>7</title>
<path fill="none" stroke="#56d87b" stroke-width="2" d="M335.88,-180C335.88,-180 305.88,-180 305.88,-180 299.88,-180 293.88,-174 293.88,-168 293.88,-168 293.88,-156 293.88,-156 293.88,-150 299.88,-144 305.88,-144 305.88,-144 335.88,-144 335.88,-144 341.88,-144 347.88,-150 347.88,-156 347.88,-156 347.88,-168 347.88,-168 347.88,-174 341.88,-180 335.88,-180"/>
<text text-anchor="middle" x="320.88" y="-158.88" font-family="sans" font-size="10.00">seqkit</text>
</g>
<!-- 7&#45;&gt;6 -->
<g id="edge10" class="edge">
<title>7&#45;&gt;6</title>
<path fill="none" stroke="grey" stroke-width="2" d="M345.35,-143.15C356.52,-135.01 369.95,-125.22 382.14,-116.33"/>
<polygon fill="grey" stroke="grey" stroke-width="2" points="384.43,-118.53 390.45,-109.81 380.3,-112.88 384.43,-118.53"/>
</g>
<!-- 8 -->
<g id="node9" class="node">
<title>8</title>
<path fill="none" stroke="#d85656" stroke-width="2" d="M475.38,-324C475.38,-324 378.38,-324 378.38,-324 372.38,-324 366.38,-318 366.38,-312 366.38,-312 366.38,-300 366.38,-300 366.38,-294 372.38,-288 378.38,-288 378.38,-288 475.38,-288 475.38,-288 481.38,-288 487.38,-294 487.38,-300 487.38,-300 487.38,-312 487.38,-312 487.38,-318 481.38,-324 475.38,-324"/>
<text text-anchor="middle" x="426.88" y="-302.88" font-family="sans" font-size="10.00">assembled_sequence</text>
</g>
<!-- 8&#45;&gt;7 -->
<g id="edge14" class="edge">
<title>8&#45;&gt;7</title>
<path fill="none" stroke="grey" stroke-width="2" d="M394.88,-287.17C381.04,-278.13 365.59,-266.08 354.88,-252 341.65,-234.63 333.03,-211.52 327.77,-193.2"/>
<polygon fill="grey" stroke="grey" stroke-width="2" points="330.46,-191.64 324.53,-182.86 323.69,-193.42 330.46,-191.64"/>
</g>
<!-- 11 -->
<g id="node12" class="node">
<title>11</title>
<path fill="none" stroke="#567bd8" stroke-width="2" d="M573.38,-180C573.38,-180 536.38,-180 536.38,-180 530.38,-180 524.38,-174 524.38,-168 524.38,-168 524.38,-156 524.38,-156 524.38,-150 530.38,-144 536.38,-144 536.38,-144 573.38,-144 573.38,-144 579.38,-144 585.38,-150 585.38,-156 585.38,-156 585.38,-168 585.38,-168 585.38,-174 579.38,-180 573.38,-180"/>
<text text-anchor="middle" x="554.88" y="-158.88" font-family="sans" font-size="10.00">blobtools</text>
</g>
<!-- 8&#45;&gt;11 -->
<g id="edge20" class="edge">
<title>8&#45;&gt;11</title>
<path fill="none" stroke="grey" stroke-width="2" d="M484.32,-287.1C502.17,-278.97 520.41,-267.58 532.88,-252 546.01,-235.58 551.45,-212.4 553.63,-193.81"/>
<polygon fill="grey" stroke="grey" stroke-width="2" points="557.37,-194.23 554.73,-183.97 550.39,-193.63 557.37,-194.23"/>
</g>
<!-- 14 -->
<g id="node15" class="node">
<title>14</title>
<path fill="none" stroke="#56d8a2" stroke-width="2" d="M621.88,-252C621.88,-252 591.88,-252 591.88,-252 585.88,-252 579.88,-246 579.88,-240 579.88,-240 579.88,-228 579.88,-228 579.88,-222 585.88,-216 591.88,-216 591.88,-216 621.88,-216 621.88,-216 627.88,-216 633.88,-222 633.88,-228 633.88,-228 633.88,-240 633.88,-240 633.88,-246 627.88,-252 621.88,-252"/>
<text text-anchor="middle" x="606.88" y="-230.88" font-family="sans" font-size="10.00">blastn</text>
</g>
<!-- 8&#45;&gt;14 -->
<g id="edge24" class="edge">
<title>8&#45;&gt;14</title>
<path fill="none" stroke="grey" stroke-width="2" d="M474.93,-287.06C501.76,-276.95 535.76,-263.98 565.88,-252 566.28,-251.84 566.68,-251.68 567.09,-251.52"/>
<polygon fill="grey" stroke="grey" stroke-width="2" points="569.18,-254.63 577.13,-247.63 566.55,-248.15 569.18,-254.63"/>
</g>
<!-- 8&#45;&gt;15 -->
<g id="edge26" class="edge">
<title>8&#45;&gt;15</title>
<path fill="none" stroke="grey" stroke-width="2" d="M420.57,-287.34C418.16,-280.59 415.34,-272.69 412.63,-265.11"/>
<polygon fill="grey" stroke="grey" stroke-width="2" points="415.93,-263.14 409.27,-254.9 409.34,-265.5 415.93,-263.14"/>
</g>
<!-- 16 -->
<g id="node17" class="node">
<title>16</title>
<path fill="none" stroke="#78d856" stroke-width="2" d="M511.75,-252C511.75,-252 462,-252 462,-252 456,-252 450,-246 450,-240 450,-240 450,-228 450,-228 450,-222 456,-216 462,-216 462,-216 511.75,-216 511.75,-216 517.75,-216 523.75,-222 523.75,-228 523.75,-228 523.75,-240 523.75,-240 523.75,-246 517.75,-252 511.75,-252"/>
<text text-anchor="middle" x="486.88" y="-230.88" font-family="sans" font-size="10.00">annotations</text>
</g>
<!-- 8&#45;&gt;16 -->
<g id="edge28" class="edge">
<title>8&#45;&gt;16</title>
<path fill="none" stroke="grey" stroke-width="2" d="M442.02,-287.34C448.43,-279.85 456.06,-270.95 463.19,-262.63"/>
<polygon fill="grey" stroke="grey" stroke-width="2" points="466.68,-264.77 470.53,-254.9 461.37,-260.22 466.68,-264.77"/>
</g>
<!-- 18 -->
<g id="node19" class="node">
<title>18</title>
<path fill="none" stroke="#d88d56" stroke-width="2" d="M455.62,-180C455.62,-180 378.12,-180 378.12,-180 372.12,-180 366.12,-174 366.12,-168 366.12,-168 366.12,-156 366.12,-156 366.12,-150 372.12,-144 378.12,-144 378.12,-144 455.62,-144 455.62,-144 461.62,-144 467.62,-150 467.62,-156 467.62,-156 467.62,-168 467.62,-168 467.62,-174 461.62,-180 455.62,-180"/>
<text text-anchor="middle" x="416.88" y="-158.88" font-family="sans" font-size="10.00">assess_assembly</text>
</g>
<!-- 8&#45;&gt;18 -->
<g id="edge31" class="edge">
<title>8&#45;&gt;18</title>
<path fill="none" stroke="grey" stroke-width="2" d="M395.1,-287.2C382.63,-278.38 369.69,-266.49 362.88,-252 356.07,-237.52 356.68,-230.75 362.88,-216 367.03,-206.1 374.04,-197.11 381.66,-189.47"/>
<polygon fill="grey" stroke="grey" stroke-width="2" points="384.08,-192.18 389.1,-182.85 379.35,-187.01 384.08,-192.18"/>
</g>
<!-- 9&#45;&gt;8 -->
<g id="edge15" class="edge">
<title>9&#45;&gt;8</title>
<path fill="none" stroke="grey" stroke-width="2" d="M418.65,-359.34C419.69,-352.75 420.89,-345.08 422.06,-337.67"/>
<polygon fill="grey" stroke="grey" stroke-width="2" points="425.97,-337.32 424.06,-326.9 419.05,-336.24 425.97,-337.32"/>
</g>
<!-- 10 -->
<g id="node11" class="node">
<title>10</title>
<path fill="none" stroke="#568ad8" stroke-width="2" d="M432.88,-468C432.88,-468 398.88,-468 398.88,-468 392.88,-468 386.88,-462 386.88,-456 386.88,-456 386.88,-444 386.88,-444 386.88,-438 392.88,-432 398.88,-432 398.88,-432 432.88,-432 432.88,-432 438.88,-432 444.88,-438 444.88,-444 444.88,-444 444.88,-456 444.88,-456 444.88,-462 438.88,-468 432.88,-468"/>
<text text-anchor="middle" x="415.88" y="-446.88" font-family="sans" font-size="10.00">go_fetch</text>
</g>
<!-- 10&#45;&gt;9 -->
<g id="edge17" class="edge">
<title>10&#45;&gt;9</title>
<path fill="none" stroke="grey" stroke-width="2" d="M415.88,-431.34C415.88,-424.75 415.88,-417.08 415.88,-409.67"/>
<polygon fill="grey" stroke="grey" stroke-width="2" points="419.38,-409.9 415.88,-399.9 412.38,-409.9 419.38,-409.9"/>
</g>
<!-- 11&#45;&gt;6 -->
<g id="edge11" class="edge">
<title>11&#45;&gt;6</title>
<path fill="none" stroke="grey" stroke-width="2" d="M523.56,-145.12C505.83,-136.12 483.31,-124.7 463.53,-114.67"/>
<polygon fill="grey" stroke="grey" stroke-width="2" points="464.45,-111.19 453.95,-109.79 461.28,-117.44 464.45,-111.19"/>
</g>
<!-- 12 -->
<g id="node13" class="node">
<title>12</title>
<path fill="none" stroke="#9fd856" stroke-width="2" d="M620.62,-396C620.62,-396 585.12,-396 585.12,-396 579.12,-396 573.12,-390 573.12,-384 573.12,-384 573.12,-372 573.12,-372 573.12,-366 579.12,-360 585.12,-360 585.12,-360 620.62,-360 620.62,-360 626.62,-360 632.62,-366 632.62,-372 632.62,-372 632.62,-384 632.62,-384 632.62,-390 626.62,-396 620.62,-396"/>
<text text-anchor="middle" x="602.88" y="-374.88" font-family="sans" font-size="10.00">taxdump</text>
</g>
<!-- 12&#45;&gt;11 -->
<g id="edge21" class="edge">
<title>12&#45;&gt;11</title>
<path fill="none" stroke="grey" stroke-width="2" d="M621.03,-359.12C629.42,-349.58 638.48,-337.12 642.88,-324 658.12,-278.49 666.49,-257.79 642.88,-216 633.04,-198.59 614.94,-186.26 597.7,-177.91"/>
<polygon fill="grey" stroke="grey" stroke-width="2" points="598.57,-174.58 588.01,-173.74 595.74,-180.99 598.57,-174.58"/>
</g>
<!-- 17 -->
<g id="node18" class="node">
<title>17</title>
<path fill="none" stroke="#56d8d8" stroke-width="2" d="M621.38,-324C621.38,-324 584.38,-324 584.38,-324 578.38,-324 572.38,-318 572.38,-312 572.38,-312 572.38,-300 572.38,-300 572.38,-294 578.38,-288 584.38,-288 584.38,-288 621.38,-288 621.38,-288 627.38,-288 633.38,-294 633.38,-300 633.38,-300 633.38,-312 633.38,-312 633.38,-318 627.38,-324 621.38,-324"/>
<text text-anchor="middle" x="602.88" y="-302.88" font-family="sans" font-size="10.00">mitos_db</text>
</g>
<!-- 12&#45;&gt;17 -->
<g id="edge29" class="edge">
<title>12&#45;&gt;17</title>
<path fill="none" stroke="grey" stroke-width="2" d="M602.88,-359.34C602.88,-352.75 602.88,-345.08 602.88,-337.67"/>
<polygon fill="grey" stroke="grey" stroke-width="2" points="606.38,-337.9 602.88,-327.9 599.38,-337.9 606.38,-337.9"/>
</g>
<!-- 13 -->
<g id="node14" class="node">
<title>13</title>
<path fill="none" stroke="#d8a456" stroke-width="2" d="M586.88,-468C586.88,-468 556.88,-468 556.88,-468 550.88,-468 544.88,-462 544.88,-456 544.88,-456 544.88,-444 544.88,-444 544.88,-438 550.88,-432 556.88,-432 556.88,-432 586.88,-432 586.88,-432 592.88,-432 598.88,-438 598.88,-444 598.88,-444 598.88,-456 598.88,-456 598.88,-462 592.88,-468 586.88,-468"/>
<text text-anchor="middle" x="571.88" y="-446.88" font-family="sans" font-size="10.00">blastdb</text>
</g>
<!-- 13&#45;&gt;12 -->
<g id="edge22" class="edge">
<title>13&#45;&gt;12</title>
<path fill="none" stroke="grey" stroke-width="2" d="M579.7,-431.34C582.76,-424.43 586.35,-416.31 589.79,-408.56"/>
<polygon fill="grey" stroke="grey" stroke-width="2" points="593.1,-409.46 593.95,-398.9 586.7,-406.63 593.1,-409.46"/>
</g>
<!-- 13&#45;&gt;14 -->
<g id="edge23" class="edge">
<title>13&#45;&gt;14</title>
<path fill="none" stroke="grey" stroke-width="2" d="M566.76,-431.45C558.85,-401.17 546.29,-337.59 563.88,-288 567.14,-278.79 572.77,-270.01 578.9,-262.34"/>
<polygon fill="grey" stroke="grey" stroke-width="2" points="582.44,-264.47 586.39,-254.63 577.17,-259.86 582.44,-264.47"/>
</g>
<!-- 14&#45;&gt;11 -->
<g id="edge19" class="edge">
<title>14&#45;&gt;11</title>
<path fill="none" stroke="grey" stroke-width="2" d="M593.75,-215.34C588.31,-208.01 581.87,-199.34 575.81,-191.18"/>
<polygon fill="grey" stroke="grey" stroke-width="2" points="577.95,-188.84 569.17,-182.9 572.33,-193.02 577.95,-188.84"/>
</g>
<!-- 15&#45;&gt;11 -->
<g id="edge18" class="edge">
<title>15&#45;&gt;11</title>
<path fill="none" stroke="grey" stroke-width="2" d="M432.47,-219C455.28,-208.57 486.73,-194.18 512.04,-182.6"/>
<polygon fill="grey" stroke="grey" stroke-width="2" points="513.91,-185.68 521.55,-178.33 511,-179.31 513.91,-185.68"/>
</g>
<!-- 15&#45;&gt;18 -->
<g id="edge30" class="edge">
<title>15&#45;&gt;18</title>
<path fill="none" stroke="grey" stroke-width="2" d="M405.66,-215.34C407.09,-208.67 408.76,-200.89 410.36,-193.39"/>
<polygon fill="grey" stroke="grey" stroke-width="2" points="414.37,-193.41 413.04,-182.9 407.52,-191.95 414.37,-193.41"/>
</g>
<!-- 16&#45;&gt;6 -->
<g id="edge12" class="edge">
<title>16&#45;&gt;6</title>
<path fill="none" stroke="grey" stroke-width="2" d="M488.5,-215.2C489.43,-196.42 488.57,-166.49 476.88,-144 471.56,-133.79 463.41,-124.63 454.8,-116.93"/>
<polygon fill="grey" stroke="grey" stroke-width="2" points="456.97,-113.52 447.03,-109.86 452.51,-118.92 456.97,-113.52"/>
</g>
<!-- 16&#45;&gt;18 -->
<g id="edge32" class="edge">
<title>16&#45;&gt;18</title>
<path fill="none" stroke="grey" stroke-width="2" d="M469.21,-215.34C461.56,-207.69 452.43,-198.56 443.95,-190.08"/>
<polygon fill="grey" stroke="grey" stroke-width="2" points="446.32,-187.5 436.78,-182.9 441.37,-192.45 446.32,-187.5"/>
</g>
<!-- 17&#45;&gt;16 -->
<g id="edge27" class="edge">
<title>17&#45;&gt;16</title>
<path fill="none" stroke="grey" stroke-width="2" d="M573.3,-287.15C559.4,-278.76 542.59,-268.62 527.51,-259.52"/>
<polygon fill="grey" stroke="grey" stroke-width="2" points="528.76,-255.98 518.39,-253.81 525.15,-261.98 528.76,-255.98"/>
</g>
<!-- 18&#45;&gt;6 -->
<g id="edge13" class="edge">
<title>18&#45;&gt;6</title>
<path fill="none" stroke="grey" stroke-width="2" d="M416.88,-143.34C416.88,-136.75 416.88,-129.08 416.88,-121.67"/>
<polygon fill="grey" stroke="grey" stroke-width="2" points="420.38,-121.9 416.88,-111.9 413.38,-121.9 420.38,-121.9"/>
</g>
<!-- 19 -->
<g id="node20" class="node">
<title>19</title>
<path fill="none" stroke="#56d88a" stroke-width="2" d="M721.62,-396C721.62,-396 668.12,-396 668.12,-396 662.12,-396 656.12,-390 656.12,-384 656.12,-384 656.12,-372 656.12,-372 656.12,-366 662.12,-360 668.12,-360 668.12,-360 721.62,-360 721.62,-360 727.62,-360 733.62,-366 733.62,-372 733.62,-372 733.62,-384 733.62,-384 733.62,-390 727.62,-396 721.62,-396"/>
<text text-anchor="middle" x="694.88" y="-374.88" font-family="sans" font-size="10.00">gene_counts</text>
</g>
<!-- 19&#45;&gt;0 -->
<g id="edge2" class="edge">
<title>19&#45;&gt;0</title>
<path fill="none" stroke="grey" stroke-width="2" d="M695.91,-359.07C697.38,-332.15 699.88,-279.65 699.88,-235 699.88,-235 699.88,-235 699.88,-161 699.88,-78.7 414.41,-36.49 306.52,-23.48"/>
<polygon fill="grey" stroke="grey" stroke-width="2" points="307.02,-19.66 296.68,-21.97 306.21,-26.61 307.02,-19.66"/>
</g>
<!-- 20 -->
<g id="node21" class="node">
<title>20</title>
<path fill="none" stroke="#566bd8" stroke-width="2" d="M783.12,-468C783.12,-468 708.62,-468 708.62,-468 702.62,-468 696.62,-462 696.62,-456 696.62,-456 696.62,-444 696.62,-444 696.62,-438 702.62,-432 708.62,-432 708.62,-432 783.12,-432 783.12,-432 789.12,-432 795.12,-438 795.12,-444 795.12,-444 795.12,-456 795.12,-456 795.12,-462 789.12,-468 783.12,-468"/>
<text text-anchor="middle" x="745.88" y="-446.88" font-family="sans" font-size="10.00">filter_alignments</text>
</g>
<!-- 20&#45;&gt;19 -->
<g id="edge33" class="edge">
<title>20&#45;&gt;19</title>
<path fill="none" stroke="grey" stroke-width="2" d="M733.01,-431.34C727.67,-424.01 721.35,-415.34 715.4,-407.18"/>
<polygon fill="grey" stroke="grey" stroke-width="2" points="717.64,-404.92 708.92,-398.9 711.98,-409.05 717.64,-404.92"/>
</g>
<!-- 26 -->
<g id="node27" class="node">
<title>26</title>
<path fill="none" stroke="#c6d856" stroke-width="2" d="M830.38,-396C830.38,-396 763.38,-396 763.38,-396 757.38,-396 751.38,-390 751.38,-384 751.38,-384 751.38,-372 751.38,-372 751.38,-366 757.38,-360 763.38,-360 763.38,-360 830.38,-360 830.38,-360 836.38,-360 842.38,-366 842.38,-372 842.38,-372 842.38,-384 842.38,-384 842.38,-390 836.38,-396 830.38,-396"/>
<text text-anchor="middle" x="796.88" y="-374.88" font-family="sans" font-size="10.00">alignment_trim</text>
</g>
<!-- 20&#45;&gt;26 -->
<g id="edge39" class="edge">
<title>20&#45;&gt;26</title>
<path fill="none" stroke="grey" stroke-width="2" d="M758.74,-431.34C764.08,-424.01 770.4,-415.34 776.35,-407.18"/>
<polygon fill="grey" stroke="grey" stroke-width="2" points="779.77,-409.05 782.83,-398.9 774.11,-404.92 779.77,-409.05"/>
</g>
<!-- 21 -->
<g id="node22" class="node">
<title>21</title>
<path fill="none" stroke="#68d856" stroke-width="2" d="M760.88,-540C760.88,-540 730.88,-540 730.88,-540 724.88,-540 718.88,-534 718.88,-528 718.88,-528 718.88,-516 718.88,-516 718.88,-510 724.88,-504 730.88,-504 730.88,-504 760.88,-504 760.88,-504 766.88,-504 772.88,-510 772.88,-516 772.88,-516 772.88,-528 772.88,-528 772.88,-534 766.88,-540 760.88,-540"/>
<text text-anchor="middle" x="745.88" y="-518.88" font-family="sans" font-size="10.00">mafft</text>
</g>
<!-- 21&#45;&gt;20 -->
<g id="edge34" class="edge">
<title>21&#45;&gt;20</title>
<path fill="none" stroke="grey" stroke-width="2" d="M745.88,-503.34C745.88,-496.75 745.88,-489.08 745.88,-481.67"/>
<polygon fill="grey" stroke="grey" stroke-width="2" points="749.38,-481.9 745.88,-471.9 742.38,-481.9 749.38,-481.9"/>
</g>
<!-- 22 -->
<g id="node23" class="node">
<title>22</title>
<path fill="none" stroke="#d86656" stroke-width="2" d="M773.5,-108C773.5,-108 740.25,-108 740.25,-108 734.25,-108 728.25,-102 728.25,-96 728.25,-96 728.25,-84 728.25,-84 728.25,-78 734.25,-72 740.25,-72 740.25,-72 773.5,-72 773.5,-72 779.5,-72 785.5,-78 785.5,-84 785.5,-84 785.5,-96 785.5,-96 785.5,-102 779.5,-108 773.5,-108"/>
<text text-anchor="middle" x="756.88" y="-86.88" font-family="sans" font-size="10.00">final_log</text>
</g>
<!-- 22&#45;&gt;0 -->
<g id="edge3" class="edge">
<title>22&#45;&gt;0</title>
<path fill="none" stroke="grey" stroke-width="2" d="M727.6,-76.27C723.07,-74.63 718.39,-73.14 713.88,-72 566.89,-34.92 386.07,-23.61 306.6,-20.3"/>
<polygon fill="grey" stroke="grey" stroke-width="2" points="306.98,-16.7 296.86,-19.81 306.71,-23.69 306.98,-16.7"/>
</g>
<!-- 23 -->
<g id="node24" class="node">
<title>23</title>
<path fill="none" stroke="#d8c356" stroke-width="2" d="M794.62,-180C794.62,-180 759.12,-180 759.12,-180 753.12,-180 747.12,-174 747.12,-168 747.12,-168 747.12,-156 747.12,-156 747.12,-150 753.12,-144 759.12,-144 759.12,-144 794.62,-144 794.62,-144 800.62,-144 806.62,-150 806.62,-156 806.62,-156 806.62,-168 806.62,-168 806.62,-174 800.62,-180 794.62,-180"/>
<text text-anchor="middle" x="776.88" y="-158.88" font-family="sans" font-size="10.00">plot_tree</text>
</g>
<!-- 23&#45;&gt;22 -->
<g id="edge35" class="edge">
<title>23&#45;&gt;22</title>
<path fill="none" stroke="grey" stroke-width="2" d="M771.83,-143.34C769.92,-136.67 767.7,-128.89 765.56,-121.39"/>
<polygon fill="grey" stroke="grey" stroke-width="2" points="768.1,-119.56 761.99,-110.9 761.37,-121.48 768.1,-119.56"/>
</g>
<!-- 24 -->
<g id="node25" class="node">
<title>24</title>
<path fill="none" stroke="#56c9d8" stroke-width="2" d="M804.5,-252C804.5,-252 759.25,-252 759.25,-252 753.25,-252 747.25,-246 747.25,-240 747.25,-240 747.25,-228 747.25,-228 747.25,-222 753.25,-216 759.25,-216 759.25,-216 804.5,-216 804.5,-216 810.5,-216 816.5,-222 816.5,-228 816.5,-228 816.5,-240 816.5,-240 816.5,-246 810.5,-252 804.5,-252"/>
<text text-anchor="middle" x="781.88" y="-230.88" font-family="sans" font-size="10.00">root_iqtree</text>
</g>
<!-- 24&#45;&gt;23 -->
<g id="edge36" class="edge">
<title>24&#45;&gt;23</title>
<path fill="none" stroke="grey" stroke-width="2" d="M780.61,-215.34C780.14,-208.75 779.59,-201.08 779.07,-193.67"/>
<polygon fill="grey" stroke="grey" stroke-width="2" points="782.36,-193.63 778.15,-183.9 775.38,-194.13 782.36,-193.63"/>
</g>
<!-- 25 -->
<g id="node26" class="node">
<title>25</title>
<path fill="none" stroke="#d87d56" stroke-width="2" d="M801.88,-324C801.88,-324 771.88,-324 771.88,-324 765.88,-324 759.88,-318 759.88,-312 759.88,-312 759.88,-300 759.88,-300 759.88,-294 765.88,-288 771.88,-288 771.88,-288 801.88,-288 801.88,-288 807.88,-288 813.88,-294 813.88,-300 813.88,-300 813.88,-312 813.88,-312 813.88,-318 807.88,-324 801.88,-324"/>
<text text-anchor="middle" x="786.88" y="-302.88" font-family="sans" font-size="10.00">iqtree</text>
</g>
<!-- 25&#45;&gt;24 -->
<g id="edge37" class="edge">
<title>25&#45;&gt;24</title>
<path fill="none" stroke="grey" stroke-width="2" d="M785.61,-287.34C785.14,-280.75 784.59,-273.08 784.07,-265.67"/>
<polygon fill="grey" stroke="grey" stroke-width="2" points="787.36,-265.63 783.15,-255.9 780.38,-266.13 787.36,-265.63"/>
</g>
<!-- 26&#45;&gt;25 -->
<g id="edge38" class="edge">
<title>26&#45;&gt;25</title>
<path fill="none" stroke="grey" stroke-width="2" d="M794.35,-359.34C793.41,-352.75 792.31,-345.08 791.26,-337.67"/>
<polygon fill="grey" stroke="grey" stroke-width="2" points="794.31,-336.31 789.43,-326.9 787.38,-337.3 794.31,-336.31"/>
</g>
</g>
</svg>
